<?xml version="1.0" encoding="UTF-8"?><svg id="Layer_1" xmlns="http://www.w3.org/2000/svg" viewBox="0 0 550 555"><rect y="417.86" width="550" height="137.14" fill="#162a47"/><g><path d="M64.75,306.46h3.39c2.29,0,3.33,1.07,3.33,2.74,0,1.33-.67,2.16-1.68,2.4,1.15,.21,2.23,1.02,2.23,2.69,0,2.16-1.44,2.99-3.76,2.99h-3.51v-10.82Zm3.19,4.64c1.57,0,2.11-.74,2.11-1.81s-.58-1.67-2.11-1.67h-1.81v3.47h1.81Zm.18,5.01c1.73,0,2.48-.58,2.48-1.9,0-1.17-.7-1.94-2.46-1.94h-2v3.84h1.98Z" fill="#747678"/><path d="M75.07,306.23v8.98c0,.62,.16,.91,.74,.91h.4v1.18h-.75c-1.26,0-1.66-.75-1.66-1.95v-9.12h1.28Z" fill="#747678"/><path d="M81.79,317.28v-.9c-.43,.51-1.25,1.06-2.45,1.06-1.38,0-2.21-.77-2.21-2.06,0-1.49,1.33-2.15,3.35-2.35l1.25-.13v-.72c0-.83-.35-1.3-1.52-1.3-1.01,0-1.5,.37-1.5,.9v.42h-1.14c-.03-.18-.05-.34-.05-.53,0-1.07,.94-1.84,2.75-1.84s2.74,.77,2.74,2.34v5.12h-1.22Zm-2.08-.86c.85,0,1.57-.42,2.02-.9v-1.75l-1.2,.14c-1.31,.18-2.1,.58-2.1,1.39,0,.7,.43,1.1,1.28,1.1Z" fill="#747678"/><path d="M87.98,309.82c1.25,0,2.21,.5,2.72,1.49l-.93,.64c-.38-.66-.93-.98-1.71-.98-1.46,0-2.02,1.14-2.02,2.67s.56,2.66,2.02,2.66c.78,0,1.34-.34,1.71-.99l.93,.66c-.51,.96-1.47,1.47-2.72,1.47-2.27,0-3.23-1.65-3.23-3.79s.96-3.83,3.23-3.83Z" fill="#747678"/><path d="M97,317.28l-2.29-3.6-1.17,1.12v2.48h-1.28v-11.04h1.28v7.03l3.38-3.28h1.63l-2.95,2.82,2.87,4.48h-1.47Z" fill="#747678"/></g><g><path d="M170.43,328.95c0,7.88-1.17,13.89-13.14,13.89s-13.78-5.76-13.78-13.89v-19.18c0-4.31-1.84-4.73-5.02-4.73v-1.13h15.16v1.13c-3.11,0-5.02,.39-5.02,4.73v19.18c0,5.87,1.38,11.62,8.87,11.62,8.3,0,9.61-4.77,9.61-11.62v-19.18c0-4.31-1.91-4.73-5.02-4.73v-1.13h13.32v1.13c-3.18,0-5.02,.39-5.02,4.73l.04,19.19Z"/><path d="M202.3,341.25c-2.83,1.02-6.04,1.55-10.32,1.55-11.52,0-17.07-8.76-17.07-21.02,0-10.67,3.46-18.48,15.79-18.48,3.75,.04,7.45,.57,11.06,1.59l.53,9.04h-1.45c-.74-3.22-3.04-8.41-10.21-8.41-9.26,0-10.03,9.86-10.03,15.79,0,7.42,1.63,18.9,14.24,18.9,2.54,.04,5.09-.46,7.42-1.45l.04,2.47Z"/><path d="M233.25,312.17c-.53-3.04-2.83-6.64-8.97-6.64-3.85,0-7.24,2.47-7.24,6.29,0,5.12,6.85,6.78,11.87,9.72,4.56,2.65,7.6,5.02,7.6,10.49,0,7.31-6.36,10.78-14.24,10.78-3.92,0-8.48-.85-9.89-1.1l-.42-8.13h1.45c.46,3.07,3.18,6.64,9.33,6.64,5.05,0,8.34-3.29,8.34-7.24,0-6.22-9.57-8.13-14.91-12.22-2.54-1.94-3.75-4.03-3.75-7.7,0-6.92,5.72-9.72,12.97-9.72,3,0,6.01,.32,8.94,.99l.39,7.88-1.45-.04Z"/><path d="M252.43,330.86c-2.4,.07-8.97,.53-8.97,5.3,0,2.65,1.73,4.45,3.5,4.45,3.32,0,5.48-3.22,5.48-6.71v-3.04Zm7.56,11.45c-1.24,.32-2.47,.46-3.75,.46-2.97,0-3.85-1.52-3.85-3.75h-.11c-1.59,2.3-3.78,3.75-7.28,3.75s-6.15-2.47-6.15-5.79c0-7.42,9.65-7.42,13.53-7.81v-1.94c0-3.6-.07-7.38-4.35-7.38-3.18,0-3.6,1.34-3.6,2.97,0,2.12-1.52,2.65-2.4,2.65-1.38,0-2.47-.92-2.47-2.3,0-3.32,4.98-5.02,8.51-5.02,7.03,0,8.3,3.39,8.3,8.13v12.72c0,1.8,.6,2.4,2.19,2.4,.46,0,.92-.07,1.38-.21l.04,1.13Z"/><path d="M261.12,341.35c2.16,0,3.89-.46,3.89-3.78v-13.99c0-3.07-2.4-3.22-3.89-3.32v-.88l7.88-1.24v6.75h.11c.71-1.91,3-6.75,8.09-6.75,5.44,0,5.94,2.97,5.94,7.74v11.69c0,3.32,1.73,3.78,3.89,3.78v.88h-11.8v-.88c2.16,0,3.89-.46,3.89-3.78v-10.56c0-4.42-.04-6.39-3.43-6.39-3,0-6.71,5.79-6.71,10.67v6.29c0,3.32,1.73,3.78,3.89,3.78v.88h-11.77l.04-.88Z"/><path d="M303.06,335.17c0,4.2,.46,4.84,3.36,4.84,9.89,0,13.99-5.3,13.99-16.89,0-10.6-3.04-16.99-13.99-16.99-2.9,0-3.36,.35-3.36,4.84v24.2Zm-10.14,5.94c3.11,0,5.02-.39,5.02-4.73v-26.6c0-4.31-1.91-4.73-5.02-4.73v-1.13h13.5c9.57,0,19.71,2.08,19.71,19.26s-10.67,19.11-19.71,19.11h-13.5v-1.17Z"/><path d="M331.05,310.51c0-1.63,1.31-2.93,2.93-2.9,1.63,0,2.93,1.31,2.9,2.93,0,1.63-1.31,2.93-2.93,2.9-1.59,.04-2.9-1.27-2.93-2.86,.04,0,.04-.04,.04-.07m-2.83,30.84c2.16,0,3.89-.46,3.89-3.78v-13.99c0-3.07-2.37-3.22-3.89-3.32v-.88l7.88-1.24v19.43c0,3.32,1.73,3.78,3.89,3.78v.88h-11.8l.04-.88Z"/><path d="M354.65,326.09c0-2.72-.92-6.25-4.88-6.25s-5.48,4.35-5.48,6.25h10.35Zm3.89,15.72c-1.24,.46-2.97,.92-6.11,.92-7.95,0-12.4-4.35-12.4-12.97,0-7.49,3.04-11.62,10.39-11.62,4.59,0,8.76,2.54,8.76,8.51v1.13h-14.91c0,4.31,2.08,13.07,10.67,13.07,1.17,0,2.54-.14,3.6-.67v1.63h0Z"/><path d="M371.46,332.87c4.31,0,4.88-3.39,4.88-6.11,0-3.85-1.34-6.92-5.02-6.92-4.06,0-4.81,2.97-4.81,5.94-.04,3.92,1.24,7.1,4.95,7.1m-4.45,8.9c-1.02,.78-2.47,1.63-2.47,3.96,0,3.04,2.72,5.65,7.17,5.65s8.97-2.4,8.97-6.11c0-2.61-2.16-3.5-4.7-3.5h-8.97Zm8.87-3.64c2.44,0,8.16,.11,8.16,5.79s-5.72,9.12-12.54,9.12c-5.02,0-10.25-1.91-10.25-6.5,0-3.18,2.37-4.56,3.99-5.37-.88-.49-2.19-1.48-2.19-3.64,0-1.91,1.66-3.85,2.19-4.45-1.17-.99-2.97-2.51-2.97-6.85,0-6.61,4.81-8.06,9.68-8.06,2.37,0,3.64,.42,5.3,1.27,.81-1.94,2.05-5.48,5.16-5.48,1.45,0,2.47,.92,2.47,2.47,0,1.38-.88,2.3-2.4,2.3-1.34,0-1.66-.71-2.3-.71-1.13,0-1.59,1.48-1.84,2.3,.6,.67,2.3,2.54,2.3,6.15,0,5.19-3.22,8.09-9.36,8.09-2.05,0-3.53-.25-4.66-.78-.57,.64-.88,1.45-.92,2.3,0,2.05,2.54,2.05,4.2,2.05h5.97Z"/><path d="M394.78,341.07c5.12,0,6.15-6.36,6.15-10.6s-1.02-10.6-6.15-10.6-6.15,6.36-6.15,10.6,1.02,10.6,6.15,10.6m-10.71-10.6c0-7.7,4.13-12.3,10.71-12.3s10.71,4.59,10.71,12.3-4.13,12.3-10.71,12.3-10.71-4.63-10.71-12.3"/><path d="M358.6,351.07H138.52v1.31h221.32c-.46-.39-.88-.81-1.24-1.31"/><path d="M405.06,351.07h-20.24c-.46,.46-.99,.92-1.52,1.31h21.76v-1.31h0Z"/></g><g><path d="M34,161.37v4.26h-1.38v-10.82h3.44c2.48,0,3.63,1.25,3.63,3.28s-1.15,3.28-3.63,3.28h-2.06Zm0-1.17h1.98c1.73,0,2.31-.87,2.31-2.11s-.58-2.11-2.31-2.11h-1.98v4.23Z" fill="#747678"/><path d="M50.09,154.81h1.82l1.39,10.82h-1.33l-1.14-9.19-2.93,9.19h-1.49l-2.88-9.19-1.17,9.19h-1.34l1.46-10.82h1.89l2.82,9.08,2.9-9.08Z" fill="#747678"/><path d="M60.88,156.98c-.45-.72-1.22-1.14-2.34-1.14-1.38,0-2.08,.83-2.08,1.87,0,.91,.51,1.34,1.54,1.65l1.44,.43c1.62,.5,2.61,1.3,2.61,2.83,0,1.87-1.39,3.15-3.7,3.15-2.43,0-3.3-1.17-3.71-2.05l1.04-.7c.37,.82,.94,1.55,2.67,1.55,1.52,0,2.27-.75,2.27-1.87,0-.94-.67-1.39-1.65-1.68l-1.44-.43c-1.62-.5-2.48-1.39-2.48-2.82,0-1.63,1.09-3.14,3.49-3.14,1.74,0,2.85,.75,3.35,1.58l-1.01,.75Z" fill="#747678"/><path d="M73.53,157.78c0,1.55-.94,2.69-2.11,3.94l-2.58,2.75h4.91v1.15h-6.72v-1.01l3.46-3.71c1.02-1.1,1.67-2.03,1.67-3.12s-.67-1.97-1.9-1.97-1.89,.85-1.89,2.08h-1.36c0-1.9,1.12-3.25,3.25-3.25s3.28,1.31,3.28,3.14Z" fill="#747678"/><path d="M80.19,155.96h-5.15v-1.15h6.66v1.01l-3.99,9.81h-1.47l3.95-9.67Z" fill="#747678"/><path d="M86.83,155.82c-1.66,0-2.46,1.7-2.46,4.21,.38-.53,1.39-1.26,2.66-1.26,2.13,0,3.36,1.38,3.36,3.43,0,1.94-1.18,3.62-3.65,3.62-2.62,0-3.76-2.18-3.76-5.25,0-3.55,1.23-5.91,3.86-5.91,2.24,0,3.3,1.28,3.3,2.83h-1.34c0-1.01-.74-1.66-1.95-1.66Zm-.1,8.8c1.49,0,2.26-.98,2.26-2.42s-.77-2.29-2.26-2.29c-1.06,0-1.94,.72-2.32,1.47,0,1.68,.69,3.23,2.32,3.23Z" fill="#747678"/><path d="M96.83,155.96h-5.15v-1.15h6.66v1.01l-3.99,9.81h-1.47l3.95-9.67Z" fill="#747678"/></g><g><path d="M170.43,177.3c0,7.88-1.17,13.89-13.14,13.89s-13.78-5.76-13.78-13.89v-19.18c0-4.31-1.84-4.73-5.02-4.73v-1.13h15.16v1.13c-3.11,0-5.02,.39-5.02,4.73v19.18c0,5.87,1.38,11.62,8.87,11.62,8.3,0,9.61-4.77,9.61-11.62v-19.18c0-4.31-1.91-4.73-5.02-4.73v-1.13h13.32v1.13c-3.18,0-5.02,.39-5.02,4.73l.04,19.18Z" fill="#182b49"/><path d="M202.3,189.6c-2.83,1.02-6.04,1.55-10.32,1.55-11.52,0-17.07-8.76-17.07-21.02,0-10.67,3.46-18.48,15.79-18.48,3.75,.04,7.45,.57,11.06,1.59l.53,9.04h-1.45c-.74-3.22-3.04-8.37-10.21-8.37-9.26,0-10.03,9.86-10.03,15.79,0,7.42,1.63,18.9,14.24,18.9,2.54,.04,5.09-.46,7.42-1.45l.04,2.44Z" fill="#182b49"/><path d="M233.25,160.52c-.53-3.04-2.83-6.64-8.97-6.64-3.85,0-7.24,2.47-7.24,6.29,0,5.12,6.85,6.78,11.87,9.72,4.56,2.65,7.6,5.02,7.6,10.49,0,7.31-6.36,10.78-14.24,10.78-3.92,0-8.48-.88-9.89-1.1l-.42-8.13h1.45c.46,3.07,3.18,6.64,9.33,6.64,5.05,0,8.34-3.29,8.34-7.24,0-6.22-9.57-8.13-14.91-12.22-2.54-1.94-3.75-4.03-3.75-7.74,0-6.92,5.72-9.72,12.97-9.72,3,0,6.01,.32,8.94,.99l.39,7.88h-1.45Z" fill="#182b49"/><path d="M252.43,179.21c-2.4,.07-8.97,.53-8.97,5.3,0,2.65,1.73,4.45,3.5,4.45,3.32,0,5.48-3.22,5.48-6.71v-3.04Zm7.56,11.45c-1.24,.32-2.47,.46-3.75,.46-2.97,0-3.85-1.52-3.85-3.75h-.11c-1.59,2.3-3.78,3.75-7.28,3.75s-6.15-2.47-6.15-5.79c0-7.42,9.65-7.42,13.53-7.81v-1.94c0-3.6-.07-7.38-4.35-7.38-3.18,0-3.6,1.34-3.6,2.97,0,2.12-1.52,2.65-2.4,2.65-1.38,0-2.47-.92-2.47-2.3,0-3.32,4.98-5.02,8.51-5.02,7.03,0,8.3,3.39,8.3,8.16v12.72c0,1.8,.6,2.4,2.19,2.4,.46,0,.92-.07,1.38-.21l.04,1.1Z" fill="#182b49"/><path d="M261.12,189.7c2.16,0,3.89-.46,3.89-3.78v-13.99c0-3.07-2.4-3.22-3.89-3.32v-.88l7.88-1.24v6.75h.11c.71-1.91,3-6.75,8.09-6.75,5.44,0,5.94,2.97,5.94,7.74v11.69c0,3.32,1.73,3.78,3.89,3.78v.88h-11.8v-.88c2.16,0,3.89-.46,3.89-3.78v-10.56c0-4.42-.04-6.39-3.43-6.39-3,0-6.71,5.79-6.71,10.67v6.29c0,3.32,1.73,3.78,3.89,3.78v.88h-11.77l.04-.88Z" fill="#182b49"/><path d="M303.06,183.52c0,4.2,.46,4.84,3.36,4.84,9.89,0,13.99-5.3,13.99-16.89,0-10.6-3.04-16.99-13.99-16.99-2.9,0-3.36,.35-3.36,4.84v24.2Zm-10.14,5.94c3.11,0,5.02-.39,5.02-4.73v-26.6c0-4.31-1.91-4.73-5.02-4.73v-1.13h13.5c9.57,0,19.71,2.08,19.71,19.26s-10.67,19.11-19.71,19.11h-13.5v-1.17Z" fill="#182b49"/><path d="M331.05,158.86c0-1.63,1.31-2.93,2.93-2.9s2.93,1.31,2.9,2.93-1.31,2.93-2.93,2.9c-1.59,.04-2.9-1.27-2.93-2.86t.04-.07m-2.83,30.84c2.16,0,3.89-.46,3.89-3.78v-13.99c0-3.07-2.37-3.22-3.89-3.32v-.88l7.88-1.24v19.43c0,3.32,1.73,3.78,3.89,3.78v.88h-11.8l.04-.88Z" fill="#182b49"/><path d="M354.65,174.44c0-2.72-.92-6.25-4.88-6.25s-5.48,4.35-5.48,6.25h10.35Zm3.89,15.76c-1.24,.46-2.97,.92-6.11,.92-7.95,0-12.4-4.35-12.4-12.97,0-7.49,3.04-11.62,10.39-11.62,4.59,0,8.76,2.54,8.76,8.51v1.13h-14.91c0,4.31,2.08,13.07,10.67,13.07,1.17,0,2.54-.14,3.6-.67v1.63h0Z" fill="#182b49"/><path d="M371.46,181.22c4.31,0,4.88-3.39,4.88-6.11,0-3.85-1.34-6.92-5.02-6.92-4.06,0-4.81,2.97-4.81,5.94-.04,3.92,1.24,7.1,4.95,7.1m-4.45,8.9c-1.02,.78-2.47,1.63-2.47,3.96,0,3.04,2.72,5.65,7.17,5.65s8.97-2.4,8.97-6.11c0-2.61-2.16-3.5-4.7-3.5h-8.97Zm8.87-3.64c2.44,0,8.16,.11,8.16,5.79s-5.72,9.12-12.54,9.12c-5.02,0-10.25-1.91-10.25-6.5,0-3.18,2.37-4.56,3.99-5.37-.88-.49-2.19-1.48-2.19-3.64,0-1.91,1.66-3.85,2.19-4.45-1.17-.99-2.97-2.51-2.97-6.85,0-6.61,4.81-8.06,9.68-8.06,2.37,0,3.64,.39,5.3,1.27,.81-1.94,2.05-5.48,5.16-5.48,1.45,0,2.47,.92,2.47,2.47,0,1.38-.88,2.3-2.4,2.3-1.34,0-1.66-.71-2.3-.71-1.13,0-1.59,1.48-1.84,2.3,.6,.67,2.3,2.54,2.3,6.15,0,5.19-3.22,8.09-9.36,8.09-2.05,0-3.53-.25-4.66-.78-.57,.64-.88,1.45-.92,2.3,0,2.05,2.54,2.05,4.2,2.05h5.97Z" fill="#182b49"/><path d="M394.78,189.42c5.12,0,6.15-6.36,6.15-10.6s-1.02-10.6-6.15-10.6-6.15,6.36-6.15,10.6,1.02,10.6,6.15,10.6m-10.71-10.6c0-7.7,4.13-12.3,10.71-12.3s10.71,4.59,10.71,12.3-4.13,12.3-10.71,12.3-10.71-4.63-10.71-12.3" fill="#182b49"/><path d="M358.6,199.42H138.52v1.31h221.32c-.46-.39-.88-.81-1.24-1.31" fill="#182b49"/><path d="M405.06,199.42h-20.24c-.46,.46-.99,.92-1.52,1.31h21.76v-1.31h0Z" fill="#182b49"/></g><g><path d="M34,9.72v4.26h-1.38V3.16h3.44c2.48,0,3.63,1.25,3.63,3.28s-1.15,3.28-3.63,3.28h-2.06Zm0-1.17h1.98c1.73,0,2.31-.87,2.31-2.11s-.58-2.11-2.31-2.11h-1.98v4.23Z" fill="#747678"/><path d="M50.09,3.16h1.82l1.39,10.82h-1.33l-1.14-9.19-2.93,9.19h-1.49l-2.88-9.19-1.17,9.19h-1.34l1.46-10.82h1.89l2.82,9.08,2.9-9.08Z" fill="#747678"/><path d="M60.88,5.33c-.45-.72-1.22-1.14-2.34-1.14-1.38,0-2.08,.83-2.08,1.87,0,.91,.51,1.34,1.54,1.65l1.44,.43c1.62,.5,2.61,1.3,2.61,2.83,0,1.87-1.39,3.15-3.7,3.15-2.43,0-3.3-1.17-3.71-2.05l1.04-.7c.37,.82,.94,1.55,2.67,1.55,1.52,0,2.27-.75,2.27-1.87,0-.94-.67-1.39-1.65-1.68l-1.44-.43c-1.62-.5-2.48-1.39-2.48-2.82,0-1.63,1.09-3.14,3.49-3.14,1.74,0,2.85,.75,3.35,1.58l-1.01,.75Z" fill="#747678"/><path d="M73.53,6.14c0,1.55-.94,2.69-2.11,3.94l-2.58,2.75h4.91v1.15h-6.72v-1.01l3.46-3.71c1.02-1.1,1.67-2.03,1.67-3.12s-.67-1.97-1.9-1.97-1.89,.85-1.89,2.08h-1.36c0-1.9,1.12-3.25,3.25-3.25s3.28,1.31,3.28,3.14Z" fill="#747678"/><path d="M80.19,4.31h-5.15v-1.15h6.66v1.01l-3.99,9.81h-1.47l3.95-9.67Z" fill="#747678"/><path d="M86.83,4.17c-1.66,0-2.46,1.7-2.46,4.21,.38-.53,1.39-1.26,2.66-1.26,2.13,0,3.36,1.38,3.36,3.43,0,1.94-1.18,3.62-3.65,3.62-2.62,0-3.76-2.18-3.76-5.25,0-3.55,1.23-5.91,3.86-5.91,2.24,0,3.3,1.28,3.3,2.83h-1.34c0-1.01-.74-1.66-1.95-1.66Zm-.1,8.8c1.49,0,2.26-.98,2.26-2.42s-.77-2.29-2.26-2.29c-1.06,0-1.94,.72-2.32,1.47,0,1.68,.69,3.23,2.32,3.23Z" fill="#747678"/><path d="M96.83,4.31h-5.15v-1.15h6.66v1.01l-3.99,9.81h-1.47l3.95-9.67Z" fill="#747678"/><path d="M44.3,33.18v-.9c-.43,.51-1.25,1.06-2.45,1.06-1.38,0-2.21-.77-2.21-2.06,0-1.49,1.33-2.15,3.35-2.35l1.25-.13v-.72c0-.83-.35-1.3-1.52-1.3-1.01,0-1.5,.37-1.5,.9v.42h-1.14c-.03-.18-.05-.34-.05-.53,0-1.07,.94-1.84,2.75-1.84s2.74,.77,2.74,2.34v5.12h-1.22Zm-2.08-.86c.85,0,1.57-.42,2.02-.9v-1.75l-1.2,.14c-1.31,.18-2.1,.58-2.1,1.39,0,.7,.43,1.1,1.28,1.1Z" fill="#747678"/><path d="M47.61,25.88h1.25v.88c.43-.61,1.33-1.04,2.4-1.04,1.81,0,2.56,.98,2.56,2.8v4.66h-1.28v-4.55c0-1.14-.4-1.73-1.66-1.73-.86,0-1.58,.37-1.98,.85v5.43h-1.28v-7.3Z" fill="#747678"/><path d="M60.73,22.13h1.26v11.04h-1.23v-.69c-.42,.48-1.17,.85-2.15,.85-2.06,0-3.07-1.47-3.07-3.83s.99-3.79,3.09-3.79c1.01,0,1.71,.4,2.1,.85v-4.43Zm-1.82,10.02c.91,0,1.52-.4,1.82-.88v-3.49c-.29-.38-.86-.88-1.82-.88-1.57,0-2.05,1.07-2.05,2.61s.48,2.64,2.05,2.64Z" fill="#747678"/><path d="M70.06,33.18v-9.52l-2.98,1.23-.35-1.09,3.47-1.44h1.2v10.82h-1.34Z" fill="#747678"/><path d="M80.06,25.34c0,1.55-.94,2.69-2.11,3.94l-2.58,2.75h4.91v1.15h-6.72v-1.01l3.46-3.71c1.02-1.1,1.67-2.03,1.67-3.12s-.67-1.97-1.9-1.97-1.89,.85-1.89,2.08h-1.36c0-1.9,1.12-3.25,3.25-3.25s3.28,1.31,3.28,3.14Z" fill="#747678"/><path d="M89.65,30.83h-1.54v2.35h-1.34v-2.35h-5.19v-1.02l5.12-7.44h1.41v7.31h1.54v1.15Zm-2.88-1.15v-5.43l-3.75,5.43h3.75Z" fill="#747678"/><path d="M94.4,33.35c-2.45,0-3.47-1.41-3.47-3.06h1.36c0,1.06,.66,1.87,2.11,1.87s2.21-1.07,2.21-2.46-.75-2.22-2.14-2.22c-.77,0-1.42,.29-1.94,.66l-1.1-.13,.67-5.65h5.54v1.15h-4.43l-.42,3.35c.37-.21,1.1-.56,1.92-.56,1.87,0,3.3,1.12,3.3,3.41,0,2-1.22,3.65-3.6,3.65Z" fill="#747678"/></g><g><g><path d="M170.43,25.65c0,7.88-1.17,13.89-13.14,13.89s-13.78-5.76-13.78-13.89V6.47c0-4.31-1.84-4.73-5.02-4.73V.57h15.16V1.7c-3.07,.04-4.98,.42-4.98,4.77V25.65c0,5.87,1.38,11.62,8.87,11.62,8.3,0,9.61-4.77,9.61-11.62V6.47c0-4.35-1.87-4.73-5.02-4.73V.57h13.32V1.7c-3.18,0-5.02,.39-5.02,4.73V25.65Z" fill="#182b49"/><path d="M202.3,37.95c-2.83,1.02-6.04,1.55-10.32,1.55-11.52,0-17.07-8.76-17.07-21.02C174.92,7.84,178.38,0,190.71,0c3.75,.04,7.45,.6,11.06,1.63l.53,9.04h-1.45c-.74-3.25-3.04-8.41-10.21-8.41-9.26,0-10.03,9.86-10.03,15.79,0,7.42,1.63,18.9,14.24,18.9,2.54,.04,5.09-.46,7.42-1.45l.04,2.44Z" fill="#182b49"/><path d="M233.25,8.87c-.53-3.04-2.83-6.64-8.97-6.64-3.85,0-7.24,2.47-7.24,6.29,0,5.12,6.85,6.78,11.87,9.75,4.56,2.65,7.6,5.02,7.6,10.49,0,7.31-6.36,10.78-14.24,10.78-3.92,0-8.48-.85-9.89-1.1l-.42-8.13h1.45c.46,3.07,3.18,6.64,9.33,6.64,5.05,0,8.34-3.29,8.34-7.24,0-6.22-9.57-8.13-14.91-12.22-2.54-1.94-3.75-4.03-3.75-7.74C212.37,2.83,218.09,0,225.33,0c3,0,6.01,.32,8.94,.99l.39,7.88s-1.41,0-1.41,0Z" fill="#182b49"/><path d="M252.43,27.56c-2.4,.07-8.97,.53-8.97,5.3,0,2.65,1.73,4.45,3.5,4.45,3.32,0,5.48-3.22,5.48-6.71v-3.04Zm7.56,11.41c-1.24,.32-2.47,.46-3.75,.46-2.97,0-3.85-1.52-3.85-3.75h-.11c-1.59,2.3-3.78,3.75-7.28,3.75s-6.15-2.47-6.15-5.79c0-7.42,9.65-7.42,13.53-7.81v-1.94c0-3.6-.07-7.38-4.35-7.38-3.18,0-3.6,1.34-3.6,2.97,0,2.12-1.52,2.65-2.4,2.65-1.38,0-2.47-.92-2.47-2.3,0-3.32,4.98-5.02,8.51-5.02,7.03,0,8.3,3.39,8.3,8.13v12.72c0,1.8,.6,2.4,2.19,2.4,.46,0,.92-.07,1.38-.21l.04,1.13Z" fill="#182b49"/><path d="M261.12,38.09c2.16,0,3.89-.46,3.89-3.78v-14.03c0-3.07-2.4-3.22-3.89-3.32v-.88l7.88-1.24v6.75h.11c.71-1.91,3-6.75,8.09-6.75,5.44,0,5.94,2.97,5.94,7.74v11.66c0,3.32,1.73,3.78,3.89,3.78v.88h-11.8v-.88c2.16,0,3.89-.46,3.89-3.78v-10.49c0-4.42-.04-6.39-3.43-6.39-3,0-6.71,5.79-6.71,10.67v6.25c0,3.32,1.73,3.78,3.89,3.78v.88h-11.77l.04-.85Z" fill="#182b49"/><path d="M303.06,31.87c0,4.2,.46,4.84,3.36,4.84,9.89,0,13.99-5.3,13.99-16.89,0-10.6-3.04-16.99-13.99-16.99-2.9,0-3.36,.35-3.36,4.84V31.87Zm-10.14,5.94c3.11,0,5.02-.39,5.02-4.73V6.47c0-4.31-1.91-4.73-5.02-4.73V.57h13.5c9.57,0,19.71,2.08,19.71,19.26s-10.67,19.11-19.71,19.11h-13.5v-1.13Z" fill="#182b49"/><path d="M331.05,7.21c0-1.63,1.31-2.93,2.93-2.9,1.63,.04,2.93,1.31,2.9,2.93,0,1.63-1.31,2.93-2.93,2.9-1.59,0-2.9-1.27-2.93-2.86,.04,0,.04-.04,.04-.07m-2.83,30.88c2.16,0,3.89-.46,3.89-3.78v-14.03c0-3.07-2.37-3.22-3.89-3.32v-.88l7.88-1.24v19.43c0,3.32,1.73,3.78,3.89,3.78v.88h-11.8l.04-.85Z" fill="#182b49"/><path d="M354.65,22.79c0-2.72-.92-6.25-4.88-6.25s-5.48,4.35-5.48,6.25h10.35Zm3.89,15.76c-1.24,.46-2.97,.92-6.11,.92-7.95,0-12.4-4.35-12.4-12.97,0-7.49,3.04-11.62,10.39-11.62,4.59,0,8.76,2.54,8.76,8.51v1.13h-14.91c0,4.31,2.08,13.07,10.67,13.07,1.17,0,2.54-.14,3.6-.67v1.63h0Z" fill="#182b49"/><path d="M371.46,29.57c4.31,0,4.88-3.39,4.88-6.11,0-3.85-1.34-6.92-5.02-6.92-4.06,0-4.81,2.97-4.81,5.94-.04,3.92,1.24,7.1,4.95,7.1m-4.45,8.9c-1.02,.78-2.47,1.63-2.47,3.96,0,3.04,2.72,5.65,7.17,5.65s8.97-2.4,8.97-6.11c0-2.61-2.16-3.5-4.7-3.5h-8.97Zm8.87-3.64c2.44,0,8.16,.11,8.16,5.79s-5.72,9.12-12.54,9.12c-5.02,0-10.25-1.91-10.25-6.5,0-3.18,2.37-4.56,3.99-5.37-.88-.49-2.19-1.48-2.19-3.64,0-1.91,1.66-3.85,2.19-4.45-1.17-.99-2.97-2.51-2.97-6.85,0-6.61,4.81-8.06,9.68-8.06,2.37,0,3.64,.42,5.3,1.27,.81-1.94,2.05-5.48,5.16-5.48,1.45,0,2.47,.92,2.47,2.47,0,1.38-.88,2.3-2.4,2.3-1.34,0-1.66-.71-2.3-.71-1.13,0-1.59,1.48-1.84,2.3,.6,.67,2.3,2.54,2.3,6.15,0,5.19-3.22,8.09-9.36,8.09-2.05,0-3.53-.25-4.66-.78-.57,.64-.88,1.45-.92,2.3,0,2.05,2.54,2.05,4.2,2.05h5.97Z" fill="#182b49"/><path d="M394.78,37.77c5.12,0,6.15-6.36,6.15-10.6s-1.02-10.6-6.15-10.6-6.15,6.36-6.15,10.6,1.02,10.6,6.15,10.6m-10.71-10.6c0-7.7,4.13-12.3,10.71-12.3s10.71,4.59,10.71,12.3-4.13,12.3-10.71,12.3-10.71-4.63-10.71-12.3" fill="#182b49"/></g><g><path d="M358.6,47.77H138.52v1.31h221.32c-.46-.39-.88-.81-1.24-1.31" fill="#c49014"/><path d="M405.06,47.77h-20.24c-.46,.46-.99,.92-1.52,1.31h21.76v-1.31h0Z" fill="#c49014"/></g></g><g><path d="M65.74,457.66l2.72,9.61,2.65-9.61h1.52l-3.24,11.27h-1.78l-2.7-9.31-2.7,9.31h-1.78l-3.24-11.27h1.52l2.65,9.61,2.72-9.61h1.67Z" fill="#fff"/><path d="M74.11,457.42h1.33v4.74c.45-.55,1.35-1,2.45-1,1.88,0,2.67,1.02,2.67,2.92v4.85h-1.32v-4.74c0-1.18-.43-1.8-1.75-1.8-.88,0-1.65,.38-2.05,.88v5.65h-1.33v-11.51Z" fill="#fff"/><path d="M82.48,458.57c0-.65,.4-.93,.93-.93,.48,0,.93,.28,.93,.93s-.45,.9-.93,.9c-.53,0-.93-.25-.93-.9Zm.28,2.75h1.33v7.61h-1.33v-7.61Z" fill="#fff"/><path d="M88.32,466.73c0,.7,.3,1.13,1.03,1.13,.33,0,.72-.1,1.03-.23l.13,1.15c-.38,.18-.95,.32-1.55,.32-1.38,0-1.97-.88-1.97-2.22v-4.4h-1.45v-.98l1.45-.17v-1.9l1.32-.25v2.15h2.03v1.15h-2.03v4.25Z" fill="#fff"/><path d="M97.19,467.13l.67,.9c-.5,.55-1.57,1.07-2.73,1.07-2.5,0-3.49-1.65-3.49-3.99,0-2.18,1.05-3.95,3.34-3.95,2.13,0,3.05,1.57,3.05,3.2,0,.37-.05,.87-.1,1.18h-4.95c.03,1.43,.65,2.4,2.15,2.4,.65,0,1.5-.27,2.07-.82Zm-.47-2.6c.02-.1,.03-.25,.03-.33,0-1.15-.67-1.92-1.78-1.92-1.37,0-1.9,.98-1.98,2.25h3.74Z" fill="#fff"/></g><g><path d="M170.43,480.57c0,7.88-1.17,13.89-13.14,13.89s-13.78-5.76-13.78-13.89v-19.19c0-4.31-1.84-4.73-5.02-4.73v-1.13h15.16v1.13c-3.11,0-5.02,.39-5.02,4.73v19.19c0,5.87,1.38,11.62,8.87,11.62,8.3,0,9.61-4.77,9.61-11.62v-19.19c0-4.31-1.91-4.73-5.02-4.73v-1.13h13.32v1.13c-3.18,0-5.02,.39-5.02,4.73l.04,19.19Z" fill="#fff"/><path d="M202.3,492.9c-2.83,1.02-6.04,1.55-10.32,1.55-11.52,0-17.07-8.76-17.07-21.02,0-10.67,3.46-18.48,15.79-18.48,3.75,.04,7.45,.6,11.06,1.63l.53,9.04h-1.45c-.74-3.22-3.04-8.41-10.21-8.41-9.26,0-10.03,9.86-10.03,15.79,0,7.42,1.63,18.9,14.24,18.9,2.54,.04,5.09-.46,7.42-1.45l.04,2.44Z" fill="#fff"/><path d="M233.25,463.82c-.53-3.04-2.83-6.64-8.97-6.64-3.85,0-7.24,2.47-7.24,6.29,0,5.12,6.85,6.78,11.87,9.75,4.56,2.65,7.6,5.02,7.6,10.49,0,7.31-6.36,10.78-14.24,10.78-3.92,0-8.48-.85-9.89-1.1l-.42-8.13h1.45c.46,3.07,3.18,6.64,9.33,6.64,5.05,0,8.34-3.29,8.34-7.28,0-6.22-9.57-8.13-14.91-12.22-2.54-1.94-3.75-4.03-3.75-7.7,0-6.92,5.72-9.75,12.97-9.75,3,0,6.01,.32,8.94,.99l.39,7.88h-1.45Z" fill="#fff"/><path d="M252.43,482.51c-2.4,.07-8.97,.53-8.97,5.3,0,2.65,1.73,4.45,3.5,4.45,3.32,0,5.48-3.22,5.48-6.71v-3.04Zm7.56,11.45c-1.24,.32-2.47,.46-3.75,.46-2.97,0-3.85-1.52-3.85-3.75h-.11c-1.59,2.3-3.78,3.75-7.28,3.75s-6.15-2.47-6.15-5.79c0-7.42,9.65-7.42,13.53-7.81v-1.94c0-3.6-.07-7.38-4.35-7.38-3.18,0-3.6,1.34-3.6,2.97,0,2.08-1.52,2.69-2.4,2.69-1.38,0-2.47-.92-2.47-2.3,0-3.32,4.98-5.02,8.51-5.02,7.03,0,8.3,3.39,8.3,8.16v12.72c0,1.8,.6,2.4,2.19,2.4,.46,0,.92-.07,1.38-.21l.04,1.06Z" fill="#fff"/><path d="M261.12,493.04c2.16,0,3.89-.46,3.89-3.78v-13.99c0-3.07-2.4-3.22-3.89-3.32v-.88l7.88-1.24v6.75h.11c.71-1.91,3-6.75,8.09-6.75,5.44,0,5.94,2.97,5.94,7.74v11.69c0,3.32,1.73,3.78,3.89,3.78v.85h-11.8v-.88c2.16,0,3.89-.46,3.89-3.78v-10.56c0-4.42-.04-6.39-3.43-6.39-3,0-6.71,5.79-6.71,10.67v6.29c0,3.32,1.73,3.78,3.89,3.78v.88h-11.77l.04-.85Z" fill="#fff"/><path d="M303.06,486.82c0,4.2,.46,4.84,3.36,4.84,9.89,0,13.99-5.3,13.99-16.89,0-10.6-3.04-16.99-13.99-16.99-2.9,0-3.36,.35-3.36,4.84v24.2Zm-10.14,5.94c3.11,0,5.02-.39,5.02-4.73v-26.6c0-4.31-1.91-4.73-5.02-4.73v-1.13h13.5c9.57,0,19.71,2.08,19.71,19.26s-10.67,19.11-19.71,19.11h-13.5v-1.17Z" fill="#fff"/><path d="M331.05,462.16c0-1.63,1.31-2.93,2.93-2.9,1.63,0,2.93,1.31,2.9,2.93,0,1.63-1.31,2.93-2.93,2.9-1.59,.04-2.9-1.27-2.93-2.86,.04,0,.04-.04,.04-.07m-2.83,30.84c2.16,0,3.89-.46,3.89-3.78v-13.99c0-3.07-2.37-3.22-3.89-3.32v-.88l7.88-1.24v19.43c0,3.32,1.73,3.78,3.89,3.78v.85h-11.8l.04-.85Z" fill="#fff"/><path d="M354.65,477.74c0-2.72-.92-6.25-4.88-6.25s-5.48,4.35-5.48,6.25h10.35Zm3.89,15.72c-1.24,.46-2.97,.92-6.11,.92-7.95,0-12.4-4.35-12.4-12.97,0-7.49,3.04-11.62,10.39-11.62,4.59,0,8.76,2.54,8.76,8.51v1.13h-14.91c0,4.31,2.08,13.07,10.67,13.07,1.17,0,2.54-.14,3.6-.67v1.63h0Z" fill="#fff"/><path d="M371.46,484.52c4.31,0,4.88-3.39,4.88-6.11,0-3.85-1.34-6.92-5.02-6.92-4.06,0-4.81,2.97-4.81,5.94-.04,3.92,1.24,7.1,4.95,7.1m-4.45,8.9c-1.02,.78-2.47,1.63-2.47,3.96,0,3.04,2.72,5.65,7.17,5.65s8.97-2.4,8.97-6.11c0-2.61-2.16-3.5-4.7-3.5h-8.97Zm8.87-3.64c2.44,0,8.16,.11,8.16,5.79s-5.72,9.12-12.54,9.12c-5.02,0-10.25-1.91-10.25-6.5,0-3.18,2.37-4.56,3.99-5.37-.88-.49-2.19-1.48-2.19-3.64,0-1.91,1.66-3.85,2.19-4.45-1.17-.99-2.97-2.51-2.97-6.85,0-6.61,4.81-8.06,9.68-8.06,2.37,0,3.64,.42,5.3,1.27,.81-1.94,2.05-5.48,5.16-5.48,1.45,0,2.47,.92,2.47,2.47,0,1.38-.88,2.3-2.4,2.3-1.34,0-1.66-.71-2.3-.71-1.13,0-1.59,1.48-1.84,2.3,.6,.67,2.3,2.54,2.3,6.15,0,5.19-3.22,8.09-9.36,8.09-2.05,0-3.53-.25-4.66-.78-.57,.64-.88,1.45-.92,2.3,0,2.05,2.54,2.05,4.2,2.05h5.97Z" fill="#fff"/><path d="M394.78,492.72c5.12,0,6.15-6.36,6.15-10.6s-1.02-10.6-6.15-10.6-6.15,6.36-6.15,10.6,1.02,10.6,6.15,10.6m-10.71-10.6c0-7.7,4.13-12.3,10.71-12.3s10.71,4.59,10.71,12.3-4.13,12.3-10.71,12.3-10.71-4.63-10.71-12.3" fill="#fff"/><path d="M358.6,502.72H138.52v1.31h221.32c-.46-.39-.88-.81-1.24-1.31" fill="#fff"/><path d="M405.06,502.72h-20.24c-.46,.46-.99,.92-1.52,1.31h21.76v-1.31h0Z" fill="#fff"/></g></svg>